<svg xmlns="http://www.w3.org/2000/svg" viewBox="0 0 200 200">
  <!-- Background circle -->
  <circle cx="100" cy="100" r="90" fill="#EEF2FF" />
  
  <!-- Dashboard panel -->
  <rect x="40" y="50" width="120" height="100" rx="10" fill="#4F46E5" />
  
  <!-- Dashboard grid lines -->
  <path d="M40 80 L160 80 M40 110 L160 110 M40 140 L160 140" stroke="#C7D2FE" stroke-width="2" />
  
  <!-- Checkmark for completed tasks -->
  <path d="M70 94 L84 108 L110 74" fill="none" stroke="#10B981" stroke-width="6" stroke-linecap="round" stroke-linejoin="round" />
  
  <!-- Settings gear -->
  <circle cx="140" cy="124" r="10" fill="none" stroke="white" stroke-width="4" />
  <path d="M140 110 L140 104 M140 144 L140 138 M150 124 L156 124 M124 124 L118 124 M147 117 L151 113 M133 135 L129 139 M147 131 L151 135 M133 113 L129 109" 
        stroke="white" stroke-width="3" stroke-linecap="round" />
  
  <!-- Brand text -->
  <text x="100" y="175" font-family="Arial, sans-serif" font-size="20" font-weight="bold" fill="#4F46E5" text-anchor="middle">Trendify Admin</text>
</svg>